<svg xmlns="http://www.w3.org/2000/svg" viewBox="0 0 240 240" width="240" height="240">
  <defs>
    <linearGradient id="telegramGradient" x1="50%" y1="0%" x2="50%" y2="100%">
      <stop offset="0%" style="stop-color:#37AEE2"/>
      <stop offset="100%" style="stop-color:#1E96C8"/>
    </linearGradient>
  </defs>
  <circle cx="120" cy="120" r="120" fill="url(#telegramGradient)"/>
  <path d="M98 175c-3.9 0-3.2-1.5-4.6-5.2L82 132.2 176 72" fill="#C8DAEA"/>
  <path d="M98 175c3 0 4.3-1.4 6-3l16-15.6-20-12" fill="#A9C9DD"/>
  <path d="M100 144.4l48.4 35.7c5.5 3 9.5 1.5 10.9-5.1l19.7-92.8c2-8.1-3.1-11.7-8.4-9.3L55 117.5c-7.9 3.2-7.8 7.6-1.4 9.5l38.9 12.1 90-56.8c4.2-2.6 8.1-1.2 4.9 1.6" fill="#FFF"/>
</svg>
